<svg xmlns="http://www.w3.org/2000/svg" xmlns:xlink="http://www.w3.org/1999/xlink" width="500" zoomAndPan="magnify" viewBox="0 0 375 374.999991" height="500" preserveAspectRatio="xMidYMid meet" version="1.2"><defs><clipPath id="76238938b3"><path d="M 70.394531 112.695312 L 187.394531 112.695312 L 187.394531 151 L 70.394531 151 Z M 70.394531 112.695312 "/></clipPath><clipPath id="09ad675838"><path d="M 70.394531 131 L 187.394531 131 L 187.394531 224.445312 L 70.394531 224.445312 Z M 70.394531 131 "/></clipPath><clipPath id="72ec3c7486"><path d="M 187.5 151.132812 L 304.5 151.132812 L 304.5 189 L 187.5 189 Z M 187.5 151.132812 "/></clipPath><clipPath id="2fc2946dc7"><path d="M 187.5 169 L 304.5 169 L 304.5 262.882812 L 187.5 262.882812 Z M 187.5 169 "/></clipPath></defs><g id="962fad175b"><g clip-rule="nonzero" clip-path="url(#76238938b3)"><path style=" stroke:none;fill-rule:nonzero;fill:#000000;fill-opacity:1;" d="M 128.949219 115.882812 C 96.359375 115.882812 73.648438 124.070312 73.648438 131.414062 C 73.648438 138.757812 96.359375 146.945312 128.949219 146.945312 C 161.535156 146.945312 184.246094 138.757812 184.246094 131.414062 C 184.246094 124.070312 161.535156 115.882812 128.949219 115.882812 Z M 128.949219 150.140625 C 113.597656 150.140625 99.144531 148.332031 88.253906 145.054688 C 76.605469 141.550781 70.453125 136.832031 70.453125 131.414062 C 70.453125 125.996094 76.605469 121.277344 88.253906 117.773438 C 99.144531 114.496094 113.597656 112.6875 128.949219 112.6875 C 144.296875 112.6875 158.75 114.496094 169.640625 117.773438 C 181.289062 121.277344 187.441406 125.996094 187.441406 131.414062 C 187.441406 136.832031 181.289062 141.550781 169.640625 145.054688 C 158.75 148.332031 144.296875 150.140625 128.949219 150.140625 "/></g><g clip-rule="nonzero" clip-path="url(#09ad675838)"><path style=" stroke:none;fill-rule:nonzero;fill:#000000;fill-opacity:1;" d="M 128.949219 224.375 C 113.597656 224.375 99.144531 222.570312 88.253906 219.289062 C 76.605469 215.785156 70.453125 211.066406 70.453125 205.648438 L 70.453125 131.414062 L 73.648438 131.414062 L 73.648438 205.648438 C 73.648438 212.996094 96.359375 221.179688 128.949219 221.179688 C 161.535156 221.179688 184.246094 212.996094 184.246094 205.648438 L 184.246094 131.414062 L 187.441406 131.414062 L 187.441406 205.648438 C 187.441406 211.066406 181.289062 215.785156 169.640625 219.289062 C 158.75 222.570312 144.296875 224.375 128.949219 224.375 "/></g><g clip-rule="nonzero" clip-path="url(#72ec3c7486)"><path style=" stroke:none;fill-rule:nonzero;fill:#000000;fill-opacity:1;" d="M 246.050781 154.320312 C 213.460938 154.320312 190.75 162.503906 190.75 169.847656 C 190.75 177.195312 213.460938 185.378906 246.050781 185.378906 C 278.640625 185.378906 301.351562 177.195312 301.351562 169.847656 C 301.351562 162.503906 278.640625 154.320312 246.050781 154.320312 Z M 246.050781 188.574219 C 230.703125 188.574219 216.25 186.769531 205.359375 183.492188 C 193.710938 179.984375 187.554688 175.269531 187.554688 169.847656 C 187.554688 164.429688 193.710938 159.714844 205.359375 156.210938 C 216.25 152.929688 230.703125 151.125 246.050781 151.125 C 261.402344 151.125 275.855469 152.929688 286.746094 156.210938 C 298.390625 159.714844 304.546875 164.429688 304.546875 169.847656 C 304.546875 175.269531 298.390625 179.984375 286.746094 183.492188 C 275.855469 186.769531 261.402344 188.574219 246.050781 188.574219 "/></g><g clip-rule="nonzero" clip-path="url(#2fc2946dc7)"><path style=" stroke:none;fill-rule:nonzero;fill:#000000;fill-opacity:1;" d="M 246.050781 262.808594 C 230.703125 262.808594 216.25 261.003906 205.359375 257.726562 C 193.710938 254.222656 187.554688 249.503906 187.554688 244.085938 L 187.554688 169.847656 L 190.75 169.847656 L 190.75 244.085938 C 190.75 251.433594 213.460938 259.617188 246.050781 259.617188 C 278.640625 259.617188 301.351562 251.433594 301.351562 244.085938 L 301.351562 169.847656 L 304.546875 169.847656 L 304.546875 244.085938 C 304.546875 249.503906 298.390625 254.222656 286.746094 257.726562 C 275.855469 261.003906 261.402344 262.808594 246.050781 262.808594 "/></g></g></svg>