<svg xmlns="http://www.w3.org/2000/svg" xmlns:xlink="http://www.w3.org/1999/xlink" width="500" zoomAndPan="magnify" viewBox="0 0 375 374.999991" height="500" preserveAspectRatio="xMidYMid meet" version="1.2"><defs/><g id="d7f8aed1fa"><g style="fill:#5587b8;fill-opacity:1;"><g transform="translate(65.137492, 193.874987)"><path style="stroke:none" d="M 6.65625 0.1875 C 6.125 0.1875 5.71875 0.0390625 5.4375 -0.25 C 5.15625 -0.539062 5.015625 -0.953125 5.015625 -1.484375 L 5.015625 -12.109375 L 1.296875 -12.109375 C 0.867188 -12.109375 0.535156 -12.226562 0.296875 -12.46875 C 0.0546875 -12.707031 -0.0625 -13.039062 -0.0625 -13.46875 C -0.0625 -13.894531 0.0546875 -14.222656 0.296875 -14.453125 C 0.535156 -14.691406 0.867188 -14.8125 1.296875 -14.8125 L 11.984375 -14.8125 C 12.421875 -14.8125 12.757812 -14.691406 13 -14.453125 C 13.238281 -14.222656 13.359375 -13.894531 13.359375 -13.46875 C 13.359375 -13.039062 13.238281 -12.707031 13 -12.46875 C 12.757812 -12.226562 12.421875 -12.109375 11.984375 -12.109375 L 8.28125 -12.109375 L 8.28125 -1.484375 C 8.28125 -0.953125 8.140625 -0.539062 7.859375 -0.25 C 7.585938 0.0390625 7.1875 0.1875 6.65625 0.1875 Z M 6.65625 0.1875 "/></g></g><g style="fill:#5587b8;fill-opacity:1;"><g transform="translate(76.743677, 193.874987)"><path style="stroke:none" d="M 4.703125 0.234375 C 3.941406 0.234375 3.257812 0.0859375 2.65625 -0.203125 C 2.0625 -0.503906 1.59375 -0.90625 1.25 -1.40625 C 0.914062 -1.90625 0.75 -2.472656 0.75 -3.109375 C 0.75 -3.859375 0.945312 -4.453125 1.34375 -4.890625 C 1.738281 -5.335938 2.375 -5.65625 3.25 -5.84375 C 4.132812 -6.03125 5.304688 -6.125 6.765625 -6.125 L 7.875 -6.125 L 7.875 -4.5 L 6.78125 -4.5 C 6.070312 -4.5 5.492188 -4.457031 5.046875 -4.375 C 4.609375 -4.300781 4.296875 -4.171875 4.109375 -3.984375 C 3.921875 -3.804688 3.828125 -3.554688 3.828125 -3.234375 C 3.828125 -2.835938 3.960938 -2.515625 4.234375 -2.265625 C 4.503906 -2.015625 4.898438 -1.890625 5.421875 -1.890625 C 5.828125 -1.890625 6.1875 -1.984375 6.5 -2.171875 C 6.8125 -2.359375 7.054688 -2.613281 7.234375 -2.9375 C 7.421875 -3.269531 7.515625 -3.648438 7.515625 -4.078125 L 7.515625 -6.484375 C 7.515625 -7.097656 7.375 -7.535156 7.09375 -7.796875 C 6.8125 -8.054688 6.335938 -8.1875 5.671875 -8.1875 C 5.296875 -8.1875 4.882812 -8.140625 4.4375 -8.046875 C 4 -7.960938 3.515625 -7.816406 2.984375 -7.609375 C 2.671875 -7.460938 2.394531 -7.425781 2.15625 -7.5 C 1.925781 -7.582031 1.742188 -7.722656 1.609375 -7.921875 C 1.484375 -8.128906 1.421875 -8.351562 1.421875 -8.59375 C 1.421875 -8.84375 1.488281 -9.082031 1.625 -9.3125 C 1.769531 -9.539062 2.003906 -9.710938 2.328125 -9.828125 C 2.984375 -10.097656 3.601562 -10.28125 4.1875 -10.375 C 4.769531 -10.46875 5.304688 -10.515625 5.796875 -10.515625 C 6.867188 -10.515625 7.75 -10.359375 8.4375 -10.046875 C 9.132812 -9.734375 9.660156 -9.25 10.015625 -8.59375 C 10.367188 -7.945312 10.546875 -7.113281 10.546875 -6.09375 L 10.546875 -1.421875 C 10.546875 -0.910156 10.414062 -0.515625 10.15625 -0.234375 C 9.90625 0.046875 9.546875 0.1875 9.078125 0.1875 C 8.597656 0.1875 8.226562 0.046875 7.96875 -0.234375 C 7.707031 -0.515625 7.578125 -0.910156 7.578125 -1.421875 L 7.578125 -2.203125 L 7.734375 -2.078125 C 7.648438 -1.597656 7.46875 -1.1875 7.1875 -0.84375 C 6.914062 -0.507812 6.566406 -0.242188 6.140625 -0.046875 C 5.722656 0.140625 5.242188 0.234375 4.703125 0.234375 Z M 4.703125 0.234375 "/></g></g><g style="fill:#5587b8;fill-opacity:1;"><g transform="translate(88.434148, 193.874987)"><path style="stroke:none" d="M 2.8125 0.1875 C 2.289062 0.1875 1.894531 0.046875 1.625 -0.234375 C 1.351562 -0.515625 1.21875 -0.910156 1.21875 -1.421875 L 1.21875 -8.890625 C 1.21875 -9.398438 1.351562 -9.789062 1.625 -10.0625 C 1.894531 -10.34375 2.273438 -10.484375 2.765625 -10.484375 C 3.273438 -10.484375 3.660156 -10.34375 3.921875 -10.0625 C 4.191406 -9.789062 4.328125 -9.398438 4.328125 -8.890625 L 4.328125 -7.6875 L 4.09375 -8.375 C 4.414062 -9.0625 4.894531 -9.585938 5.53125 -9.953125 C 6.164062 -10.328125 6.890625 -10.515625 7.703125 -10.515625 C 8.535156 -10.515625 9.21875 -10.359375 9.75 -10.046875 C 10.28125 -9.734375 10.675781 -9.257812 10.9375 -8.625 C 11.207031 -7.988281 11.34375 -7.175781 11.34375 -6.1875 L 11.34375 -1.421875 C 11.34375 -0.910156 11.203125 -0.515625 10.921875 -0.234375 C 10.648438 0.046875 10.257812 0.1875 9.75 0.1875 C 9.238281 0.1875 8.847656 0.046875 8.578125 -0.234375 C 8.304688 -0.515625 8.171875 -0.910156 8.171875 -1.421875 L 8.171875 -6.046875 C 8.171875 -6.765625 8.039062 -7.28125 7.78125 -7.59375 C 7.519531 -7.90625 7.125 -8.0625 6.59375 -8.0625 C 5.925781 -8.0625 5.390625 -7.847656 4.984375 -7.421875 C 4.585938 -7.003906 4.390625 -6.445312 4.390625 -5.75 L 4.390625 -1.421875 C 4.390625 -0.347656 3.863281 0.1875 2.8125 0.1875 Z M 2.8125 0.1875 "/></g></g><g style="fill:#5587b8;fill-opacity:1;"><g transform="translate(100.922181, 193.874987)"><path style="stroke:none" d="M 2.8125 0.1875 C 2.289062 0.1875 1.894531 0.046875 1.625 -0.234375 C 1.351562 -0.515625 1.21875 -0.910156 1.21875 -1.421875 L 1.21875 -13.375 C 1.21875 -13.90625 1.351562 -14.304688 1.625 -14.578125 C 1.894531 -14.859375 2.289062 -15 2.8125 -15 C 3.3125 -15 3.695312 -14.859375 3.96875 -14.578125 C 4.25 -14.304688 4.390625 -13.90625 4.390625 -13.375 L 4.390625 -6.046875 L 4.4375 -6.046875 L 7.46875 -9.421875 C 7.78125 -9.773438 8.066406 -10.039062 8.328125 -10.21875 C 8.585938 -10.394531 8.929688 -10.484375 9.359375 -10.484375 C 9.796875 -10.484375 10.128906 -10.367188 10.359375 -10.140625 C 10.585938 -9.921875 10.707031 -9.648438 10.71875 -9.328125 C 10.726562 -9.015625 10.59375 -8.695312 10.3125 -8.375 L 7.09375 -4.78125 L 7.09375 -5.984375 L 10.671875 -1.875 C 10.929688 -1.550781 11.046875 -1.226562 11.015625 -0.90625 C 10.984375 -0.582031 10.835938 -0.316406 10.578125 -0.109375 C 10.328125 0.0859375 10.007812 0.1875 9.625 0.1875 C 9.144531 0.1875 8.757812 0.0976562 8.46875 -0.078125 C 8.1875 -0.265625 7.898438 -0.546875 7.609375 -0.921875 L 4.4375 -4.453125 L 4.390625 -4.453125 L 4.390625 -1.421875 C 4.390625 -0.347656 3.863281 0.1875 2.8125 0.1875 Z M 2.8125 0.1875 "/></g></g><g style="fill:#5587b8;fill-opacity:1;"><g transform="translate(112.63364, 193.874987)"><path style="stroke:none" d=""/></g></g><g style="fill:#5587b8;fill-opacity:1;"><g transform="translate(118.489375, 193.874987)"><path style="stroke:none" d="M 3.125 0.1875 C 2.59375 0.1875 2.1875 0.0390625 1.90625 -0.25 C 1.625 -0.539062 1.484375 -0.953125 1.484375 -1.484375 L 1.484375 -13.3125 C 1.484375 -13.84375 1.625 -14.253906 1.90625 -14.546875 C 2.1875 -14.847656 2.59375 -15 3.125 -15 C 3.644531 -15 4.046875 -14.847656 4.328125 -14.546875 C 4.609375 -14.253906 4.75 -13.84375 4.75 -13.3125 L 4.75 -1.484375 C 4.75 -0.953125 4.609375 -0.539062 4.328125 -0.25 C 4.054688 0.0390625 3.65625 0.1875 3.125 0.1875 Z M 3.125 0.1875 "/></g></g><g style="fill:#5587b8;fill-opacity:1;"><g transform="translate(124.722892, 193.874987)"><path style="stroke:none" d="M 2.8125 0.1875 C 2.289062 0.1875 1.894531 0.046875 1.625 -0.234375 C 1.351562 -0.515625 1.21875 -0.910156 1.21875 -1.421875 L 1.21875 -8.890625 C 1.21875 -9.398438 1.351562 -9.789062 1.625 -10.0625 C 1.894531 -10.34375 2.273438 -10.484375 2.765625 -10.484375 C 3.273438 -10.484375 3.660156 -10.34375 3.921875 -10.0625 C 4.191406 -9.789062 4.328125 -9.398438 4.328125 -8.890625 L 4.328125 -7.6875 L 4.09375 -8.375 C 4.414062 -9.0625 4.894531 -9.585938 5.53125 -9.953125 C 6.164062 -10.328125 6.890625 -10.515625 7.703125 -10.515625 C 8.535156 -10.515625 9.21875 -10.359375 9.75 -10.046875 C 10.28125 -9.734375 10.675781 -9.257812 10.9375 -8.625 C 11.207031 -7.988281 11.34375 -7.175781 11.34375 -6.1875 L 11.34375 -1.421875 C 11.34375 -0.910156 11.203125 -0.515625 10.921875 -0.234375 C 10.648438 0.046875 10.257812 0.1875 9.75 0.1875 C 9.238281 0.1875 8.847656 0.046875 8.578125 -0.234375 C 8.304688 -0.515625 8.171875 -0.910156 8.171875 -1.421875 L 8.171875 -6.046875 C 8.171875 -6.765625 8.039062 -7.28125 7.78125 -7.59375 C 7.519531 -7.90625 7.125 -8.0625 6.59375 -8.0625 C 5.925781 -8.0625 5.390625 -7.847656 4.984375 -7.421875 C 4.585938 -7.003906 4.390625 -6.445312 4.390625 -5.75 L 4.390625 -1.421875 C 4.390625 -0.347656 3.863281 0.1875 2.8125 0.1875 Z M 2.8125 0.1875 "/></g></g><g style="fill:#5587b8;fill-opacity:1;"><g transform="translate(137.210924, 193.874987)"><path style="stroke:none" d="M 5.171875 0.234375 C 4.546875 0.234375 3.90625 0.175781 3.25 0.0625 C 2.601562 -0.0507812 2.015625 -0.238281 1.484375 -0.5 C 1.210938 -0.644531 1.015625 -0.820312 0.890625 -1.03125 C 0.773438 -1.25 0.722656 -1.46875 0.734375 -1.6875 C 0.742188 -1.914062 0.816406 -2.117188 0.953125 -2.296875 C 1.085938 -2.484375 1.265625 -2.609375 1.484375 -2.671875 C 1.703125 -2.734375 1.941406 -2.710938 2.203125 -2.609375 C 2.773438 -2.367188 3.300781 -2.195312 3.78125 -2.09375 C 4.257812 -2 4.726562 -1.953125 5.1875 -1.953125 C 5.789062 -1.953125 6.226562 -2.046875 6.5 -2.234375 C 6.769531 -2.421875 6.90625 -2.671875 6.90625 -2.984375 C 6.90625 -3.265625 6.8125 -3.472656 6.625 -3.609375 C 6.445312 -3.753906 6.1875 -3.851562 5.84375 -3.90625 L 3.640625 -4.3125 C 2.765625 -4.457031 2.09375 -4.769531 1.625 -5.25 C 1.15625 -5.738281 0.921875 -6.363281 0.921875 -7.125 C 0.921875 -7.820312 1.113281 -8.425781 1.5 -8.9375 C 1.894531 -9.445312 2.4375 -9.835938 3.125 -10.109375 C 3.820312 -10.378906 4.613281 -10.515625 5.5 -10.515625 C 6.132812 -10.515625 6.71875 -10.457031 7.25 -10.34375 C 7.78125 -10.238281 8.289062 -10.0625 8.78125 -9.8125 C 9.03125 -9.6875 9.207031 -9.515625 9.3125 -9.296875 C 9.414062 -9.085938 9.445312 -8.867188 9.40625 -8.640625 C 9.375 -8.421875 9.289062 -8.21875 9.15625 -8.03125 C 9.019531 -7.851562 8.84375 -7.738281 8.625 -7.6875 C 8.40625 -7.632812 8.15625 -7.660156 7.875 -7.765625 C 7.425781 -7.972656 7.007812 -8.125 6.625 -8.21875 C 6.25 -8.3125 5.890625 -8.359375 5.546875 -8.359375 C 4.910156 -8.359375 4.453125 -8.253906 4.171875 -8.046875 C 3.898438 -7.847656 3.765625 -7.59375 3.765625 -7.28125 C 3.765625 -7.050781 3.84375 -6.851562 4 -6.6875 C 4.15625 -6.53125 4.40625 -6.421875 4.75 -6.359375 L 6.953125 -5.96875 C 7.859375 -5.8125 8.550781 -5.503906 9.03125 -5.046875 C 9.507812 -4.597656 9.75 -3.976562 9.75 -3.1875 C 9.75 -2.125 9.332031 -1.285156 8.5 -0.671875 C 7.664062 -0.0664062 6.554688 0.234375 5.171875 0.234375 Z M 5.171875 0.234375 "/></g></g><g style="fill:#5587b8;fill-opacity:1;"><g transform="translate(147.537156, 193.874987)"><path style="stroke:none" d="M 2.8125 3.96875 C 2.289062 3.96875 1.894531 3.832031 1.625 3.5625 C 1.351562 3.289062 1.21875 2.890625 1.21875 2.359375 L 1.21875 -8.890625 C 1.21875 -9.398438 1.351562 -9.789062 1.625 -10.0625 C 1.894531 -10.34375 2.273438 -10.484375 2.765625 -10.484375 C 3.285156 -10.484375 3.675781 -10.34375 3.9375 -10.0625 C 4.207031 -9.789062 4.34375 -9.398438 4.34375 -8.890625 L 4.34375 -7.453125 L 4.109375 -8.28125 C 4.328125 -8.945312 4.753906 -9.484375 5.390625 -9.890625 C 6.023438 -10.304688 6.753906 -10.515625 7.578125 -10.515625 C 8.472656 -10.515625 9.257812 -10.296875 9.9375 -9.859375 C 10.625 -9.429688 11.15625 -8.816406 11.53125 -8.015625 C 11.90625 -7.222656 12.09375 -6.273438 12.09375 -5.171875 C 12.09375 -4.054688 11.90625 -3.09375 11.53125 -2.28125 C 11.15625 -1.476562 10.628906 -0.859375 9.953125 -0.421875 C 9.285156 0.015625 8.492188 0.234375 7.578125 0.234375 C 6.765625 0.234375 6.039062 0.0351562 5.40625 -0.359375 C 4.78125 -0.765625 4.359375 -1.289062 4.140625 -1.9375 L 4.390625 -1.9375 L 4.390625 2.359375 C 4.390625 2.890625 4.25 3.289062 3.96875 3.5625 C 3.695312 3.832031 3.3125 3.96875 2.8125 3.96875 Z M 6.640625 -2.140625 C 7.085938 -2.140625 7.484375 -2.25 7.828125 -2.46875 C 8.171875 -2.695312 8.4375 -3.03125 8.625 -3.46875 C 8.8125 -3.914062 8.90625 -4.484375 8.90625 -5.171875 C 8.90625 -6.191406 8.691406 -6.941406 8.265625 -7.421875 C 7.847656 -7.898438 7.304688 -8.140625 6.640625 -8.140625 C 6.191406 -8.140625 5.796875 -8.035156 5.453125 -7.828125 C 5.109375 -7.617188 4.835938 -7.289062 4.640625 -6.84375 C 4.441406 -6.40625 4.34375 -5.847656 4.34375 -5.171875 C 4.34375 -4.148438 4.550781 -3.390625 4.96875 -2.890625 C 5.394531 -2.390625 5.953125 -2.140625 6.640625 -2.140625 Z M 6.640625 -2.140625 "/></g></g><g style="fill:#5587b8;fill-opacity:1;"><g transform="translate(160.340004, 193.874987)"><path style="stroke:none" d="M 6.578125 0.234375 C 5.359375 0.234375 4.3125 0.015625 3.4375 -0.421875 C 2.5625 -0.867188 1.890625 -1.492188 1.421875 -2.296875 C 0.953125 -3.097656 0.71875 -4.046875 0.71875 -5.140625 C 0.71875 -6.203125 0.941406 -7.132812 1.390625 -7.9375 C 1.835938 -8.75 2.460938 -9.378906 3.265625 -9.828125 C 4.066406 -10.285156 4.976562 -10.515625 6 -10.515625 C 6.75 -10.515625 7.421875 -10.390625 8.015625 -10.140625 C 8.617188 -9.898438 9.140625 -9.550781 9.578125 -9.09375 C 10.015625 -8.644531 10.34375 -8.09375 10.5625 -7.4375 C 10.789062 -6.789062 10.90625 -6.066406 10.90625 -5.265625 C 10.90625 -5.003906 10.816406 -4.804688 10.640625 -4.671875 C 10.472656 -4.535156 10.226562 -4.46875 9.90625 -4.46875 L 3.3125 -4.46875 L 3.3125 -6.109375 L 8.609375 -6.109375 L 8.28125 -5.8125 C 8.28125 -6.382812 8.191406 -6.863281 8.015625 -7.25 C 7.847656 -7.632812 7.609375 -7.925781 7.296875 -8.125 C 6.984375 -8.320312 6.59375 -8.421875 6.125 -8.421875 C 5.613281 -8.421875 5.175781 -8.300781 4.8125 -8.0625 C 4.445312 -7.820312 4.164062 -7.476562 3.96875 -7.03125 C 3.769531 -6.582031 3.671875 -6.046875 3.671875 -5.421875 L 3.671875 -5.25 C 3.671875 -4.1875 3.921875 -3.398438 4.421875 -2.890625 C 4.921875 -2.390625 5.660156 -2.140625 6.640625 -2.140625 C 6.972656 -2.140625 7.351562 -2.179688 7.78125 -2.265625 C 8.21875 -2.347656 8.628906 -2.484375 9.015625 -2.671875 C 9.328125 -2.816406 9.609375 -2.863281 9.859375 -2.8125 C 10.117188 -2.769531 10.316406 -2.65625 10.453125 -2.46875 C 10.597656 -2.289062 10.679688 -2.082031 10.703125 -1.84375 C 10.722656 -1.601562 10.671875 -1.367188 10.546875 -1.140625 C 10.421875 -0.910156 10.207031 -0.71875 9.90625 -0.5625 C 9.4375 -0.300781 8.898438 -0.101562 8.296875 0.03125 C 7.703125 0.164062 7.128906 0.234375 6.578125 0.234375 Z M 6.578125 0.234375 "/></g></g><g style="fill:#5587b8;fill-opacity:1;"><g transform="translate(171.862568, 193.874987)"><path style="stroke:none" d="M 6.234375 0.234375 C 5.117188 0.234375 4.144531 0.015625 3.3125 -0.421875 C 2.476562 -0.867188 1.835938 -1.5 1.390625 -2.3125 C 0.941406 -3.125 0.71875 -4.082031 0.71875 -5.1875 C 0.71875 -6.007812 0.84375 -6.75 1.09375 -7.40625 C 1.34375 -8.070312 1.707031 -8.632812 2.1875 -9.09375 C 2.675781 -9.550781 3.265625 -9.898438 3.953125 -10.140625 C 4.640625 -10.390625 5.398438 -10.515625 6.234375 -10.515625 C 6.671875 -10.515625 7.132812 -10.460938 7.625 -10.359375 C 8.113281 -10.253906 8.597656 -10.078125 9.078125 -9.828125 C 9.347656 -9.703125 9.535156 -9.523438 9.640625 -9.296875 C 9.753906 -9.066406 9.796875 -8.828125 9.765625 -8.578125 C 9.734375 -8.335938 9.644531 -8.117188 9.5 -7.921875 C 9.351562 -7.734375 9.164062 -7.609375 8.9375 -7.546875 C 8.71875 -7.484375 8.46875 -7.523438 8.1875 -7.671875 C 7.925781 -7.816406 7.648438 -7.925781 7.359375 -8 C 7.078125 -8.070312 6.804688 -8.109375 6.546875 -8.109375 C 6.128906 -8.109375 5.757812 -8.039062 5.4375 -7.90625 C 5.113281 -7.769531 4.84375 -7.578125 4.625 -7.328125 C 4.414062 -7.085938 4.25 -6.785156 4.125 -6.421875 C 4.007812 -6.054688 3.953125 -5.640625 3.953125 -5.171875 C 3.953125 -4.242188 4.175781 -3.515625 4.625 -2.984375 C 5.082031 -2.460938 5.722656 -2.203125 6.546875 -2.203125 C 6.804688 -2.203125 7.070312 -2.234375 7.34375 -2.296875 C 7.625 -2.359375 7.90625 -2.46875 8.1875 -2.625 C 8.46875 -2.757812 8.71875 -2.789062 8.9375 -2.71875 C 9.164062 -2.65625 9.347656 -2.53125 9.484375 -2.34375 C 9.617188 -2.15625 9.695312 -1.9375 9.71875 -1.6875 C 9.738281 -1.445312 9.691406 -1.207031 9.578125 -0.96875 C 9.472656 -0.738281 9.289062 -0.5625 9.03125 -0.4375 C 8.550781 -0.195312 8.070312 -0.0234375 7.59375 0.078125 C 7.125 0.179688 6.671875 0.234375 6.234375 0.234375 Z M 6.234375 0.234375 "/></g></g><g style="fill:#5587b8;fill-opacity:1;"><g transform="translate(181.95795, 193.874987)"><path style="stroke:none" d="M 6.28125 0.234375 C 5.3125 0.234375 4.5 0.0703125 3.84375 -0.25 C 3.195312 -0.570312 2.71875 -1.039062 2.40625 -1.65625 C 2.09375 -2.269531 1.9375 -3.046875 1.9375 -3.984375 L 1.9375 -7.9375 L 1.046875 -7.9375 C 0.660156 -7.9375 0.359375 -8.039062 0.140625 -8.25 C -0.078125 -8.457031 -0.1875 -8.742188 -0.1875 -9.109375 C -0.1875 -9.503906 -0.078125 -9.800781 0.140625 -10 C 0.359375 -10.207031 0.660156 -10.3125 1.046875 -10.3125 L 1.9375 -10.3125 L 1.9375 -11.90625 C 1.9375 -12.4375 2.070312 -12.835938 2.34375 -13.109375 C 2.625 -13.390625 3.019531 -13.53125 3.53125 -13.53125 C 4.050781 -13.53125 4.441406 -13.390625 4.703125 -13.109375 C 4.972656 -12.835938 5.109375 -12.4375 5.109375 -11.90625 L 5.109375 -10.3125 L 7.09375 -10.3125 C 7.488281 -10.3125 7.789062 -10.207031 8 -10 C 8.207031 -9.800781 8.3125 -9.503906 8.3125 -9.109375 C 8.3125 -8.742188 8.207031 -8.457031 8 -8.25 C 7.789062 -8.039062 7.488281 -7.9375 7.09375 -7.9375 L 5.109375 -7.9375 L 5.109375 -4.109375 C 5.109375 -3.523438 5.242188 -3.085938 5.515625 -2.796875 C 5.785156 -2.503906 6.222656 -2.359375 6.828125 -2.359375 C 7.035156 -2.359375 7.226562 -2.378906 7.40625 -2.421875 C 7.59375 -2.460938 7.765625 -2.488281 7.921875 -2.5 C 8.117188 -2.507812 8.28125 -2.445312 8.40625 -2.3125 C 8.53125 -2.1875 8.59375 -1.898438 8.59375 -1.453125 C 8.59375 -1.109375 8.535156 -0.8125 8.421875 -0.5625 C 8.304688 -0.3125 8.109375 -0.128906 7.828125 -0.015625 C 7.648438 0.046875 7.398438 0.101562 7.078125 0.15625 C 6.765625 0.207031 6.5 0.234375 6.28125 0.234375 Z M 6.28125 0.234375 "/></g></g><g style="fill:#5587b8;fill-opacity:1;"><g transform="translate(190.752104, 193.874987)"><path style="stroke:none" d="M 2.8125 0.171875 C 2.289062 0.171875 1.894531 0.0195312 1.625 -0.28125 C 1.351562 -0.582031 1.21875 -1.003906 1.21875 -1.546875 L 1.21875 -8.734375 C 1.21875 -9.296875 1.351562 -9.726562 1.625 -10.03125 C 1.894531 -10.332031 2.289062 -10.484375 2.8125 -10.484375 C 3.3125 -10.484375 3.695312 -10.332031 3.96875 -10.03125 C 4.25 -9.726562 4.390625 -9.296875 4.390625 -8.734375 L 4.390625 -1.546875 C 4.390625 -1.003906 4.253906 -0.582031 3.984375 -0.28125 C 3.722656 0.0195312 3.332031 0.171875 2.8125 0.171875 Z M 2.8125 -12.203125 C 2.226562 -12.203125 1.773438 -12.335938 1.453125 -12.609375 C 1.140625 -12.878906 0.984375 -13.269531 0.984375 -13.78125 C 0.984375 -14.289062 1.140625 -14.679688 1.453125 -14.953125 C 1.773438 -15.234375 2.226562 -15.375 2.8125 -15.375 C 3.40625 -15.375 3.851562 -15.234375 4.15625 -14.953125 C 4.46875 -14.679688 4.625 -14.289062 4.625 -13.78125 C 4.625 -13.269531 4.46875 -12.878906 4.15625 -12.609375 C 3.851562 -12.335938 3.40625 -12.203125 2.8125 -12.203125 Z M 2.8125 -12.203125 "/></g></g><g style="fill:#5587b8;fill-opacity:1;"><g transform="translate(196.376966, 193.874987)"><path style="stroke:none" d="M 6.171875 0.234375 C 5.066406 0.234375 4.101562 0.015625 3.28125 -0.421875 C 2.46875 -0.859375 1.835938 -1.476562 1.390625 -2.28125 C 0.941406 -3.09375 0.71875 -4.054688 0.71875 -5.171875 C 0.71875 -5.992188 0.84375 -6.734375 1.09375 -7.390625 C 1.34375 -8.046875 1.707031 -8.609375 2.1875 -9.078125 C 2.675781 -9.546875 3.253906 -9.898438 3.921875 -10.140625 C 4.597656 -10.390625 5.347656 -10.515625 6.171875 -10.515625 C 7.273438 -10.515625 8.238281 -10.296875 9.0625 -9.859375 C 9.882812 -9.429688 10.519531 -8.816406 10.96875 -8.015625 C 11.425781 -7.222656 11.65625 -6.273438 11.65625 -5.171875 C 11.65625 -4.328125 11.523438 -3.578125 11.265625 -2.921875 C 11.003906 -2.265625 10.632812 -1.695312 10.15625 -1.21875 C 9.6875 -0.738281 9.109375 -0.375 8.421875 -0.125 C 7.742188 0.113281 6.992188 0.234375 6.171875 0.234375 Z M 6.171875 -2.140625 C 6.628906 -2.140625 7.023438 -2.25 7.359375 -2.46875 C 7.703125 -2.695312 7.972656 -3.03125 8.171875 -3.46875 C 8.367188 -3.914062 8.46875 -4.484375 8.46875 -5.171875 C 8.46875 -6.191406 8.253906 -6.941406 7.828125 -7.421875 C 7.410156 -7.898438 6.859375 -8.140625 6.171875 -8.140625 C 5.722656 -8.140625 5.328125 -8.035156 4.984375 -7.828125 C 4.640625 -7.617188 4.375 -7.289062 4.1875 -6.84375 C 4 -6.40625 3.90625 -5.847656 3.90625 -5.171875 C 3.90625 -4.148438 4.113281 -3.390625 4.53125 -2.890625 C 4.957031 -2.390625 5.503906 -2.140625 6.171875 -2.140625 Z M 6.171875 -2.140625 "/></g></g><g style="fill:#5587b8;fill-opacity:1;"><g transform="translate(208.739068, 193.874987)"><path style="stroke:none" d="M 2.8125 0.1875 C 2.289062 0.1875 1.894531 0.046875 1.625 -0.234375 C 1.351562 -0.515625 1.21875 -0.910156 1.21875 -1.421875 L 1.21875 -8.890625 C 1.21875 -9.398438 1.351562 -9.789062 1.625 -10.0625 C 1.894531 -10.34375 2.273438 -10.484375 2.765625 -10.484375 C 3.273438 -10.484375 3.660156 -10.34375 3.921875 -10.0625 C 4.191406 -9.789062 4.328125 -9.398438 4.328125 -8.890625 L 4.328125 -7.6875 L 4.09375 -8.375 C 4.414062 -9.0625 4.894531 -9.585938 5.53125 -9.953125 C 6.164062 -10.328125 6.890625 -10.515625 7.703125 -10.515625 C 8.535156 -10.515625 9.21875 -10.359375 9.75 -10.046875 C 10.28125 -9.734375 10.675781 -9.257812 10.9375 -8.625 C 11.207031 -7.988281 11.34375 -7.175781 11.34375 -6.1875 L 11.34375 -1.421875 C 11.34375 -0.910156 11.203125 -0.515625 10.921875 -0.234375 C 10.648438 0.046875 10.257812 0.1875 9.75 0.1875 C 9.238281 0.1875 8.847656 0.046875 8.578125 -0.234375 C 8.304688 -0.515625 8.171875 -0.910156 8.171875 -1.421875 L 8.171875 -6.046875 C 8.171875 -6.765625 8.039062 -7.28125 7.78125 -7.59375 C 7.519531 -7.90625 7.125 -8.0625 6.59375 -8.0625 C 5.925781 -8.0625 5.390625 -7.847656 4.984375 -7.421875 C 4.585938 -7.003906 4.390625 -6.445312 4.390625 -5.75 L 4.390625 -1.421875 C 4.390625 -0.347656 3.863281 0.1875 2.8125 0.1875 Z M 2.8125 0.1875 "/></g></g><g style="fill:#5587b8;fill-opacity:1;"><g transform="translate(221.227101, 193.874987)"><path style="stroke:none" d=""/></g></g><g style="fill:#5587b8;fill-opacity:1;"><g transform="translate(227.082836, 193.874987)"><path style="stroke:none" d="M 6.78125 0.234375 C 6.195312 0.234375 5.597656 0.1875 4.984375 0.09375 C 4.378906 0 3.800781 -0.128906 3.25 -0.296875 C 2.695312 -0.460938 2.203125 -0.671875 1.765625 -0.921875 C 1.453125 -1.085938 1.234375 -1.304688 1.109375 -1.578125 C 0.984375 -1.859375 0.9375 -2.132812 0.96875 -2.40625 C 1.007812 -2.6875 1.113281 -2.9375 1.28125 -3.15625 C 1.457031 -3.375 1.679688 -3.515625 1.953125 -3.578125 C 2.234375 -3.640625 2.539062 -3.585938 2.875 -3.421875 C 3.445312 -3.097656 4.070312 -2.859375 4.75 -2.703125 C 5.4375 -2.554688 6.113281 -2.484375 6.78125 -2.484375 C 7.800781 -2.484375 8.53125 -2.640625 8.96875 -2.953125 C 9.40625 -3.265625 9.625 -3.660156 9.625 -4.140625 C 9.625 -4.546875 9.46875 -4.863281 9.15625 -5.09375 C 8.84375 -5.332031 8.300781 -5.539062 7.53125 -5.71875 L 5.171875 -6.21875 C 3.828125 -6.5 2.828125 -6.976562 2.171875 -7.65625 C 1.523438 -8.332031 1.203125 -9.222656 1.203125 -10.328125 C 1.203125 -11.023438 1.347656 -11.660156 1.640625 -12.234375 C 1.929688 -12.816406 2.34375 -13.316406 2.875 -13.734375 C 3.40625 -14.148438 4.035156 -14.46875 4.765625 -14.6875 C 5.503906 -14.914062 6.316406 -15.03125 7.203125 -15.03125 C 7.984375 -15.03125 8.75 -14.9375 9.5 -14.75 C 10.257812 -14.5625 10.929688 -14.285156 11.515625 -13.921875 C 11.785156 -13.753906 11.972656 -13.539062 12.078125 -13.28125 C 12.191406 -13.019531 12.226562 -12.757812 12.1875 -12.5 C 12.15625 -12.238281 12.050781 -12.007812 11.875 -11.8125 C 11.695312 -11.625 11.472656 -11.5 11.203125 -11.4375 C 10.941406 -11.382812 10.625 -11.453125 10.25 -11.640625 C 9.789062 -11.867188 9.300781 -12.039062 8.78125 -12.15625 C 8.257812 -12.269531 7.726562 -12.328125 7.1875 -12.328125 C 6.59375 -12.328125 6.085938 -12.25 5.671875 -12.09375 C 5.265625 -11.9375 4.953125 -11.71875 4.734375 -11.4375 C 4.515625 -11.164062 4.40625 -10.847656 4.40625 -10.484375 C 4.40625 -10.078125 4.550781 -9.742188 4.84375 -9.484375 C 5.144531 -9.234375 5.660156 -9.035156 6.390625 -8.890625 L 8.75 -8.375 C 10.125 -8.082031 11.144531 -7.609375 11.8125 -6.953125 C 12.488281 -6.304688 12.828125 -5.453125 12.828125 -4.390625 C 12.828125 -3.691406 12.6875 -3.054688 12.40625 -2.484375 C 12.125 -1.921875 11.71875 -1.4375 11.1875 -1.03125 C 10.65625 -0.625 10.019531 -0.3125 9.28125 -0.09375 C 8.539062 0.125 7.707031 0.234375 6.78125 0.234375 Z M 6.78125 0.234375 "/></g></g><g style="fill:#5587b8;fill-opacity:1;"><g transform="translate(240.536326, 193.874987)"><path style="stroke:none" d="M 6.578125 0.234375 C 5.359375 0.234375 4.3125 0.015625 3.4375 -0.421875 C 2.5625 -0.867188 1.890625 -1.492188 1.421875 -2.296875 C 0.953125 -3.097656 0.71875 -4.046875 0.71875 -5.140625 C 0.71875 -6.203125 0.941406 -7.132812 1.390625 -7.9375 C 1.835938 -8.75 2.460938 -9.378906 3.265625 -9.828125 C 4.066406 -10.285156 4.976562 -10.515625 6 -10.515625 C 6.75 -10.515625 7.421875 -10.390625 8.015625 -10.140625 C 8.617188 -9.898438 9.140625 -9.550781 9.578125 -9.09375 C 10.015625 -8.644531 10.34375 -8.09375 10.5625 -7.4375 C 10.789062 -6.789062 10.90625 -6.066406 10.90625 -5.265625 C 10.90625 -5.003906 10.816406 -4.804688 10.640625 -4.671875 C 10.472656 -4.535156 10.226562 -4.46875 9.90625 -4.46875 L 3.3125 -4.46875 L 3.3125 -6.109375 L 8.609375 -6.109375 L 8.28125 -5.8125 C 8.28125 -6.382812 8.191406 -6.863281 8.015625 -7.25 C 7.847656 -7.632812 7.609375 -7.925781 7.296875 -8.125 C 6.984375 -8.320312 6.59375 -8.421875 6.125 -8.421875 C 5.613281 -8.421875 5.175781 -8.300781 4.8125 -8.0625 C 4.445312 -7.820312 4.164062 -7.476562 3.96875 -7.03125 C 3.769531 -6.582031 3.671875 -6.046875 3.671875 -5.421875 L 3.671875 -5.25 C 3.671875 -4.1875 3.921875 -3.398438 4.421875 -2.890625 C 4.921875 -2.390625 5.660156 -2.140625 6.640625 -2.140625 C 6.972656 -2.140625 7.351562 -2.179688 7.78125 -2.265625 C 8.21875 -2.347656 8.628906 -2.484375 9.015625 -2.671875 C 9.328125 -2.816406 9.609375 -2.863281 9.859375 -2.8125 C 10.117188 -2.769531 10.316406 -2.65625 10.453125 -2.46875 C 10.597656 -2.289062 10.679688 -2.082031 10.703125 -1.84375 C 10.722656 -1.601562 10.671875 -1.367188 10.546875 -1.140625 C 10.421875 -0.910156 10.207031 -0.71875 9.90625 -0.5625 C 9.4375 -0.300781 8.898438 -0.101562 8.296875 0.03125 C 7.703125 0.164062 7.128906 0.234375 6.578125 0.234375 Z M 6.578125 0.234375 "/></g></g><g style="fill:#5587b8;fill-opacity:1;"><g transform="translate(252.058889, 193.874987)"><path style="stroke:none" d="M 2.859375 0.1875 C 2.328125 0.1875 1.921875 0.046875 1.640625 -0.234375 C 1.359375 -0.515625 1.21875 -0.910156 1.21875 -1.421875 L 1.21875 -8.890625 C 1.21875 -9.398438 1.351562 -9.789062 1.625 -10.0625 C 1.894531 -10.34375 2.273438 -10.484375 2.765625 -10.484375 C 3.273438 -10.484375 3.660156 -10.34375 3.921875 -10.0625 C 4.191406 -9.789062 4.328125 -9.398438 4.328125 -8.890625 L 4.328125 -7.796875 L 4.109375 -7.796875 C 4.285156 -8.628906 4.660156 -9.273438 5.234375 -9.734375 C 5.804688 -10.203125 6.546875 -10.460938 7.453125 -10.515625 C 7.804688 -10.546875 8.078125 -10.457031 8.265625 -10.25 C 8.453125 -10.050781 8.550781 -9.722656 8.5625 -9.265625 C 8.59375 -8.828125 8.503906 -8.484375 8.296875 -8.234375 C 8.097656 -7.984375 7.757812 -7.828125 7.28125 -7.765625 L 6.796875 -7.734375 C 6.003906 -7.660156 5.414062 -7.425781 5.03125 -7.03125 C 4.644531 -6.644531 4.453125 -6.078125 4.453125 -5.328125 L 4.453125 -1.421875 C 4.453125 -0.910156 4.316406 -0.515625 4.046875 -0.234375 C 3.773438 0.046875 3.378906 0.1875 2.859375 0.1875 Z M 2.859375 0.1875 "/></g></g><g style="fill:#5587b8;fill-opacity:1;"><g transform="translate(261.335859, 193.874987)"><path style="stroke:none" d="M 5.59375 0.1875 C 5.1875 0.1875 4.828125 0.078125 4.515625 -0.140625 C 4.203125 -0.359375 3.957031 -0.679688 3.78125 -1.109375 L 0.609375 -8.421875 C 0.453125 -8.785156 0.394531 -9.125 0.4375 -9.4375 C 0.476562 -9.75 0.628906 -10 0.890625 -10.1875 C 1.148438 -10.382812 1.507812 -10.484375 1.96875 -10.484375 C 2.351562 -10.484375 2.660156 -10.394531 2.890625 -10.21875 C 3.128906 -10.039062 3.34375 -9.707031 3.53125 -9.21875 L 6 -2.921875 L 5.328125 -2.921875 L 7.921875 -9.234375 C 8.117188 -9.710938 8.332031 -10.039062 8.5625 -10.21875 C 8.800781 -10.394531 9.132812 -10.484375 9.5625 -10.484375 C 9.914062 -10.484375 10.203125 -10.382812 10.421875 -10.1875 C 10.640625 -10 10.773438 -9.75 10.828125 -9.4375 C 10.878906 -9.132812 10.816406 -8.800781 10.640625 -8.4375 L 7.40625 -1.109375 C 7.226562 -0.660156 6.988281 -0.332031 6.6875 -0.125 C 6.382812 0.0820312 6.019531 0.1875 5.59375 0.1875 Z M 5.59375 0.1875 "/></g></g><g style="fill:#5587b8;fill-opacity:1;"><g transform="translate(272.543606, 193.874987)"><path style="stroke:none" d="M 2.8125 0.171875 C 2.289062 0.171875 1.894531 0.0195312 1.625 -0.28125 C 1.351562 -0.582031 1.21875 -1.003906 1.21875 -1.546875 L 1.21875 -8.734375 C 1.21875 -9.296875 1.351562 -9.726562 1.625 -10.03125 C 1.894531 -10.332031 2.289062 -10.484375 2.8125 -10.484375 C 3.3125 -10.484375 3.695312 -10.332031 3.96875 -10.03125 C 4.25 -9.726562 4.390625 -9.296875 4.390625 -8.734375 L 4.390625 -1.546875 C 4.390625 -1.003906 4.253906 -0.582031 3.984375 -0.28125 C 3.722656 0.0195312 3.332031 0.171875 2.8125 0.171875 Z M 2.8125 -12.203125 C 2.226562 -12.203125 1.773438 -12.335938 1.453125 -12.609375 C 1.140625 -12.878906 0.984375 -13.269531 0.984375 -13.78125 C 0.984375 -14.289062 1.140625 -14.679688 1.453125 -14.953125 C 1.773438 -15.234375 2.226562 -15.375 2.8125 -15.375 C 3.40625 -15.375 3.851562 -15.234375 4.15625 -14.953125 C 4.46875 -14.679688 4.625 -14.289062 4.625 -13.78125 C 4.625 -13.269531 4.46875 -12.878906 4.15625 -12.609375 C 3.851562 -12.335938 3.40625 -12.203125 2.8125 -12.203125 Z M 2.8125 -12.203125 "/></g></g><g style="fill:#5587b8;fill-opacity:1;"><g transform="translate(278.168469, 193.874987)"><path style="stroke:none" d="M 6.234375 0.234375 C 5.117188 0.234375 4.144531 0.015625 3.3125 -0.421875 C 2.476562 -0.867188 1.835938 -1.5 1.390625 -2.3125 C 0.941406 -3.125 0.71875 -4.082031 0.71875 -5.1875 C 0.71875 -6.007812 0.84375 -6.75 1.09375 -7.40625 C 1.34375 -8.070312 1.707031 -8.632812 2.1875 -9.09375 C 2.675781 -9.550781 3.265625 -9.898438 3.953125 -10.140625 C 4.640625 -10.390625 5.398438 -10.515625 6.234375 -10.515625 C 6.671875 -10.515625 7.132812 -10.460938 7.625 -10.359375 C 8.113281 -10.253906 8.597656 -10.078125 9.078125 -9.828125 C 9.347656 -9.703125 9.535156 -9.523438 9.640625 -9.296875 C 9.753906 -9.066406 9.796875 -8.828125 9.765625 -8.578125 C 9.734375 -8.335938 9.644531 -8.117188 9.5 -7.921875 C 9.351562 -7.734375 9.164062 -7.609375 8.9375 -7.546875 C 8.71875 -7.484375 8.46875 -7.523438 8.1875 -7.671875 C 7.925781 -7.816406 7.648438 -7.925781 7.359375 -8 C 7.078125 -8.070312 6.804688 -8.109375 6.546875 -8.109375 C 6.128906 -8.109375 5.757812 -8.039062 5.4375 -7.90625 C 5.113281 -7.769531 4.84375 -7.578125 4.625 -7.328125 C 4.414062 -7.085938 4.25 -6.785156 4.125 -6.421875 C 4.007812 -6.054688 3.953125 -5.640625 3.953125 -5.171875 C 3.953125 -4.242188 4.175781 -3.515625 4.625 -2.984375 C 5.082031 -2.460938 5.722656 -2.203125 6.546875 -2.203125 C 6.804688 -2.203125 7.070312 -2.234375 7.34375 -2.296875 C 7.625 -2.359375 7.90625 -2.46875 8.1875 -2.625 C 8.46875 -2.757812 8.71875 -2.789062 8.9375 -2.71875 C 9.164062 -2.65625 9.347656 -2.53125 9.484375 -2.34375 C 9.617188 -2.15625 9.695312 -1.9375 9.71875 -1.6875 C 9.738281 -1.445312 9.691406 -1.207031 9.578125 -0.96875 C 9.472656 -0.738281 9.289062 -0.5625 9.03125 -0.4375 C 8.550781 -0.195312 8.070312 -0.0234375 7.59375 0.078125 C 7.125 0.179688 6.671875 0.234375 6.234375 0.234375 Z M 6.234375 0.234375 "/></g></g><g style="fill:#5587b8;fill-opacity:1;"><g transform="translate(287.990932, 193.874987)"><path style="stroke:none" d="M 6.578125 0.234375 C 5.359375 0.234375 4.3125 0.015625 3.4375 -0.421875 C 2.5625 -0.867188 1.890625 -1.492188 1.421875 -2.296875 C 0.953125 -3.097656 0.71875 -4.046875 0.71875 -5.140625 C 0.71875 -6.203125 0.941406 -7.132812 1.390625 -7.9375 C 1.835938 -8.75 2.460938 -9.378906 3.265625 -9.828125 C 4.066406 -10.285156 4.976562 -10.515625 6 -10.515625 C 6.75 -10.515625 7.421875 -10.390625 8.015625 -10.140625 C 8.617188 -9.898438 9.140625 -9.550781 9.578125 -9.09375 C 10.015625 -8.644531 10.34375 -8.09375 10.5625 -7.4375 C 10.789062 -6.789062 10.90625 -6.066406 10.90625 -5.265625 C 10.90625 -5.003906 10.816406 -4.804688 10.640625 -4.671875 C 10.472656 -4.535156 10.226562 -4.46875 9.90625 -4.46875 L 3.3125 -4.46875 L 3.3125 -6.109375 L 8.609375 -6.109375 L 8.28125 -5.8125 C 8.28125 -6.382812 8.191406 -6.863281 8.015625 -7.25 C 7.847656 -7.632812 7.609375 -7.925781 7.296875 -8.125 C 6.984375 -8.320312 6.59375 -8.421875 6.125 -8.421875 C 5.613281 -8.421875 5.175781 -8.300781 4.8125 -8.0625 C 4.445312 -7.820312 4.164062 -7.476562 3.96875 -7.03125 C 3.769531 -6.582031 3.671875 -6.046875 3.671875 -5.421875 L 3.671875 -5.25 C 3.671875 -4.1875 3.921875 -3.398438 4.421875 -2.890625 C 4.921875 -2.390625 5.660156 -2.140625 6.640625 -2.140625 C 6.972656 -2.140625 7.351562 -2.179688 7.78125 -2.265625 C 8.21875 -2.347656 8.628906 -2.484375 9.015625 -2.671875 C 9.328125 -2.816406 9.609375 -2.863281 9.859375 -2.8125 C 10.117188 -2.769531 10.316406 -2.65625 10.453125 -2.46875 C 10.597656 -2.289062 10.679688 -2.082031 10.703125 -1.84375 C 10.722656 -1.601562 10.671875 -1.367188 10.546875 -1.140625 C 10.421875 -0.910156 10.207031 -0.71875 9.90625 -0.5625 C 9.4375 -0.300781 8.898438 -0.101562 8.296875 0.03125 C 7.703125 0.164062 7.128906 0.234375 6.578125 0.234375 Z M 6.578125 0.234375 "/></g></g><g style="fill:#5587b8;fill-opacity:1;"><g transform="translate(299.513484, 193.874987)"><path style="stroke:none" d="M 5.171875 0.234375 C 4.546875 0.234375 3.90625 0.175781 3.25 0.0625 C 2.601562 -0.0507812 2.015625 -0.238281 1.484375 -0.5 C 1.210938 -0.644531 1.015625 -0.820312 0.890625 -1.03125 C 0.773438 -1.25 0.722656 -1.46875 0.734375 -1.6875 C 0.742188 -1.914062 0.816406 -2.117188 0.953125 -2.296875 C 1.085938 -2.484375 1.265625 -2.609375 1.484375 -2.671875 C 1.703125 -2.734375 1.941406 -2.710938 2.203125 -2.609375 C 2.773438 -2.367188 3.300781 -2.195312 3.78125 -2.09375 C 4.257812 -2 4.726562 -1.953125 5.1875 -1.953125 C 5.789062 -1.953125 6.226562 -2.046875 6.5 -2.234375 C 6.769531 -2.421875 6.90625 -2.671875 6.90625 -2.984375 C 6.90625 -3.265625 6.8125 -3.472656 6.625 -3.609375 C 6.445312 -3.753906 6.1875 -3.851562 5.84375 -3.90625 L 3.640625 -4.3125 C 2.765625 -4.457031 2.09375 -4.769531 1.625 -5.25 C 1.15625 -5.738281 0.921875 -6.363281 0.921875 -7.125 C 0.921875 -7.820312 1.113281 -8.425781 1.5 -8.9375 C 1.894531 -9.445312 2.4375 -9.835938 3.125 -10.109375 C 3.820312 -10.378906 4.613281 -10.515625 5.5 -10.515625 C 6.132812 -10.515625 6.71875 -10.457031 7.25 -10.34375 C 7.78125 -10.238281 8.289062 -10.0625 8.78125 -9.8125 C 9.03125 -9.6875 9.207031 -9.515625 9.3125 -9.296875 C 9.414062 -9.085938 9.445312 -8.867188 9.40625 -8.640625 C 9.375 -8.421875 9.289062 -8.21875 9.15625 -8.03125 C 9.019531 -7.851562 8.84375 -7.738281 8.625 -7.6875 C 8.40625 -7.632812 8.15625 -7.660156 7.875 -7.765625 C 7.425781 -7.972656 7.007812 -8.125 6.625 -8.21875 C 6.25 -8.3125 5.890625 -8.359375 5.546875 -8.359375 C 4.910156 -8.359375 4.453125 -8.253906 4.171875 -8.046875 C 3.898438 -7.847656 3.765625 -7.59375 3.765625 -7.28125 C 3.765625 -7.050781 3.84375 -6.851562 4 -6.6875 C 4.15625 -6.53125 4.40625 -6.421875 4.75 -6.359375 L 6.953125 -5.96875 C 7.859375 -5.8125 8.550781 -5.503906 9.03125 -5.046875 C 9.507812 -4.597656 9.75 -3.976562 9.75 -3.1875 C 9.75 -2.125 9.332031 -1.285156 8.5 -0.671875 C 7.664062 -0.0664062 6.554688 0.234375 5.171875 0.234375 Z M 5.171875 0.234375 "/></g></g></g></svg>